PathFileType  4	(X/Y/Z) C:\Users\antoi\Documents\MyRepositories\mobilecap\ResultsAnalysis
DataRate	CameraRate	NumFrames	NumMarkers	Units	OrigDataRate	OrigDataStartFrame	OrigNumFrames
100.0	100.0	7	51	mm	100.0	98	156
Frame#	Time	r_knee			r_shank_antsup			r_ankle			r_calc			r_5meta			r_toe			L_knee			L_shank_antsup			L_ankle			L_calc			L_5meta			L_toe			r_sh2			r_sh3			r_sh4			L_sh2			L_sh3			r_thigh1			r_thigh2			r_thigh3			r_thigh4			r_thigh5			L_thigh1			L_thigh2			L_thigh3			L_thigh4			r.ASIS			r.PSIS			L.ASIS			L.PSIS			C7			R_Shoulder			L_Shoulder			R_Sternum			L_Sternum			R_humerus			R_elbow_med			R_elbow_lat			R_forearm			R_wrist_radius			R_wrist_ulna			L_humerus			L_elbow_med			L_elbow_lat			L_forearm			L_wrist_radius			L_wrist_ulna			R_HJC			L_HJC			R_HJC_reg			L_HJC_reg			
		X1	Y1	Z1	X2	Y2	Z2	X3	Y3	Z3	X4	Y4	Z4	X5	Y5	Z5	X6	Y6	Z6	X7	Y7	Z7	X8	Y8	Z8	X9	Y9	Z9	X10	Y10	Z10	X11	Y11	Z11	X12	Y12	Z12	X13	Y13	Z13	X14	Y14	Z14	X15	Y15	Z15	X16	Y16	Z16	X17	Y17	Z17	X18	Y18	Z18	X19	Y19	Z19	X20	Y20	Z20	X21	Y21	Z21	X22	Y22	Z22	X23	Y23	Z23	X24	Y24	Z24	X25	Y25	Z25	X26	Y26	Z26	X27	Y27	Z27	X28	Y28	Z28	X29	Y29	Z29	X30	Y30	Z30	X31	Y31	Z31	X32	Y32	Z32	X33	Y33	Z33	X34	Y34	Z34	X35	Y35	Z35	X36	Y36	Z36	X37	Y37	Z37	X38	Y38	Z38	X39	Y39	Z39	X40	Y40	Z40	X41	Y41	Z41	X42	Y42	Z42	X43	Y43	Z43	X44	Y44	Z44	X45	Y45	Z45	X46	Y46	Z46	X47	Y47	Z47	X48	Y48	Z48	X49	Y49	Z49	X50	Y50	Z50	X51	Y51	Z51	

98	0.97000000	983.61481	460.96887	-113.84777	949.46999	347.46913	-136.46997	707.06090	221.25405	-160.89345	647.08358	223.60653	-217.00436	749.74115	102.45130	-129.70771	792.28108	91.41512	-169.80066	881.60777	475.24800	-417.05459	913.72344	380.17747	-364.25921	843.79633	87.41648	-379.82410	790.39821	51.49022	-335.11947	963.66709	36.74229	-380.87501	995.75687	55.35523	-323.62502	862.52175	278.58797	-155.33859	908.78272	385.72404	-85.51212	812.99449	330.59099	-109.63753	873.50352	393.03384	-442.25993	870.71854	272.66959	-446.40285	965.62655	771.17467	-96.68548	1011.90484	670.01758	-95.15250	970.23137	625.49077	-63.96891	866.26290	725.82412	-68.73130	914.06700	620.06079	-69.27574	964.52251	764.81838	-413.20515	966.52877	628.32743	-410.21162	864.97448	768.01409	-461.41673	863.89769	625.81563	-448.50379	959.59804	919.65875	-126.19863	787.78619	977.28166	-196.92288	985.89869	933.48915	-367.41806	793.26846	987.40199	-313.37776	890.11278	1420.99408	-329.84602	942.76637	1402.33854	-174.01148	942.28603	1360.21074	-479.56859	1004.60431	1350.51790	-300.40242	1005.87012	1339.80548	-344.52876	928.37519	1289.64457	-87.00002	786.68492	1126.81116	-100.94105	826.27278	1128.32558	-35.78527	844.33752	1002.01696	-11.85759	854.42810	899.90664	-6.36607	820.14809	898.87420	8.45103	946.03009	1207.58712	-527.72900	884.70728	1021.39622	-457.40632	889.70891	1028.70184	-530.78877	933.47160	941.88429	-559.09969	966.71113	816.13571	-556.02419	937.13893	809.11781	-566.18535	870.37120	854.99336	-159.97751	889.12827	864.24894	-348.19584	891.74712	854.77213	-168.92878	899.26123	868.64511	-328.55933	
99	0.98000000	1002.09472	464.65096	-114.35304	972.16072	349.93987	-136.86939	735.24574	213.23286	-159.58661	674.49164	211.90837	-215.02282	784.28304	96.87987	-127.95817	827.47226	88.25022	-168.19315	886.24800	475.35838	-416.71290	917.08196	379.88366	-363.75987	843.98646	87.67967	-379.35759	790.62838	51.68218	-334.87186	963.70498	36.77591	-380.76995	995.70406	55.09665	-323.53282	887.82406	276.82693	-155.10917	930.12981	385.74941	-85.19530	836.85988	326.70427	-108.60122	877.32698	393.01981	-441.89674	873.52368	272.70181	-445.93228	976.64575	774.57356	-97.06241	1025.14890	674.64934	-96.44058	985.01473	629.09982	-64.23977	878.45520	726.79961	-68.27001	928.94193	622.28621	-68.87886	972.21362	764.23816	-412.46527	972.93579	627.74117	-409.32790	873.16277	768.51528	-461.66025	870.57124	626.20590	-448.51036	968.00434	920.80772	-126.30951	796.04782	977.66353	-197.14607	994.58954	933.61381	-367.25421	801.83092	987.60375	-313.60727	898.44476	1421.60748	-329.28860	949.53108	1402.29388	-173.05388	951.96800	1361.28459	-478.72098	1012.59082	1350.97235	-299.09643	1014.27840	1340.40353	-343.22866	934.17906	1289.52694	-86.36624	792.71687	1126.82227	-102.38501	830.93423	1128.51140	-36.51356	847.86668	1002.32065	-11.49575	856.59241	899.73858	-5.32138	822.48458	899.61010	9.44457	957.95660	1208.81444	-526.77102	897.98148	1021.67405	-457.62225	904.78989	1029.01025	-530.84577	950.23052	942.96648	-558.06163	985.42375	817.88239	-554.17150	955.94828	810.32598	-565.10913	878.93320	855.77111	-159.72616	897.85881	864.37253	-347.95843	900.35644	855.34154	-169.10150	908.27222	868.95020	-328.53753	
100	0.99000000	1019.99255	468.31672	-114.84395	994.61976	352.40309	-137.04356	764.04811	204.62843	-158.25981	702.79378	199.58289	-213.05043	819.50404	91.23571	-126.27002	863.14704	85.05519	-166.64391	890.83097	475.45011	-416.38998	920.31259	379.55525	-363.30303	844.11809	87.88156	-378.82121	790.90855	51.92358	-334.64053	963.73465	36.81912	-380.65259	995.55045	54.79639	-323.45653	913.31177	275.04410	-154.63742	950.91494	385.86255	-84.87730	860.54472	322.68038	-107.69028	881.00336	392.97019	-441.56774	876.17521	272.71345	-445.47893	987.48978	777.77448	-97.50407	1038.09826	679.06930	-97.74056	999.49047	632.66151	-64.54248	890.57939	727.86823	-67.70510	943.49256	624.55006	-68.39605	979.83386	763.58738	-411.75950	979.27070	627.10553	-408.41017	881.24218	768.92014	-461.93735	877.12073	626.58482	-448.51684	976.47883	921.87044	-126.41815	804.34245	977.93816	-197.40781	1003.27503	933.65928	-367.06583	810.41873	987.75807	-313.88082	906.72480	1422.18229	-328.61821	956.23112	1402.16562	-171.98983	961.60612	1362.39121	-477.72987	1020.53915	1351.40774	-297.67082	1022.65019	1340.99584	-341.80658	939.95754	1289.31182	-85.64874	798.84879	1126.68352	-103.68346	835.62676	1128.62129	-37.14199	851.54124	1002.54759	-11.06456	858.93743	899.38655	-4.34203	825.11471	900.27621	10.52057	969.84999	1210.12887	-525.72925	911.24719	1022.05174	-457.79092	919.76116	1029.44467	-530.83978	966.86325	944.20786	-556.95417	1004.00818	819.75195	-552.11679	974.83098	811.73087	-563.92063	887.52301	856.46724	-159.49287	906.62067	864.42031	-347.73623	909.02950	855.76807	-169.29996	917.33419	869.19192	-328.51746	
101	1.00000000	1037.22104	471.87706	-115.27712	1016.72494	354.86907	-136.95231	793.46513	195.55597	-156.92993	732.01572	186.79647	-211.15156	855.28343	85.63294	-124.64107	899.21357	81.96214	-165.13467	895.38255	475.50713	-416.07983	923.51605	379.19543	-362.89369	844.24845	88.04720	-378.23158	791.22882	52.17562	-334.40342	963.74751	36.86978	-380.52052	995.33932	54.48104	-323.38618	938.96350	273.34855	-153.90839	971.11810	386.01468	-84.53793	883.97949	318.55075	-106.91357	884.56600	392.88097	-441.25931	878.69238	272.71141	-445.03796	998.15503	780.73658	-97.98899	1050.72178	683.20392	-99.02213	1013.61416	636.10738	-64.85628	902.59479	729.00462	-67.05161	957.69127	626.80506	-67.82026	987.35316	762.87245	-411.16753	985.51541	626.41307	-407.57000	889.12221	769.19183	-462.21159	883.45894	626.94949	-448.49283	984.98033	922.79913	-126.54283	812.68151	978.10051	-197.71932	1011.93482	933.59886	-366.87021	819.00651	987.86620	-314.20877	914.97338	1422.69318	-327.81923	962.89418	1401.93869	-170.81786	971.21189	1363.51142	-476.59613	1028.48250	1351.80787	-296.12520	1031.00731	1341.56437	-340.26504	945.69422	1288.98761	-84.84196	805.09190	1126.38280	-104.85645	840.35860	1128.63342	-37.67743	855.36642	1002.67567	-10.56940	861.47285	898.88371	-3.40459	828.01616	900.85067	11.65086	981.68824	1211.51081	-524.59961	924.41772	1022.54329	-457.93125	934.55796	1030.01246	-530.78734	983.35792	945.59792	-555.78723	1022.43341	821.72693	-549.84615	993.75857	813.31407	-562.61485	896.10121	857.05497	-159.30222	915.37583	864.38107	-347.55317	917.74391	856.03124	-169.51904	926.37488	869.35852	-328.49752	
102	1.01000000	1053.70807	475.25757	-115.60886	1038.32312	357.33746	-136.57491	823.48564	186.14049	-155.63754	762.15545	173.72849	-209.39862	891.49781	80.19454	-123.05223	935.57934	79.09826	-163.62709	899.91483	475.51045	-415.78332	926.76644	378.79221	-362.53275	844.42755	88.21508	-377.62664	791.55958	52.41547	-334.14479	963.74148	36.92396	-380.37393	995.14393	54.19113	-323.30750	964.70938	271.81148	-152.93103	990.72452	386.13447	-84.16108	907.14517	314.31913	-106.26862	888.05793	392.74598	-440.96097	881.10764	272.70040	-444.60848	1008.65071	783.44400	-98.50620	1063.00039	687.01169	-100.27414	1027.35023	639.38725	-65.15938	914.45920	730.19220	-66.32704	971.51898	629.01224	-67.15095	994.75399	762.09542	-410.75563	991.66040	625.65519	-406.91411	896.74808	769.32168	-462.46403	889.53123	627.29425	-448.42103	993.48062	923.55069	-126.70131	821.07627	978.14493	-198.08034	1020.53556	933.40294	-366.70100	827.57015	987.92341	-314.58894	923.20829	1423.11818	-326.87204	969.55471	1401.59835	-169.53487	980.79722	1364.63070	-475.31973	1036.44759	1352.15332	-294.45787	1039.37128	1342.09077	-338.60585	951.39000	1288.54508	-83.94147	811.45855	1125.90972	-105.93141	845.15931	1128.51572	-38.12776	859.35048	1002.68050	-10.01673	864.20191	898.28095	-2.46962	831.14523	901.30153	12.80493	993.44826	1212.94242	-523.38258	937.40151	1023.14776	-458.06554	949.14138	1030.70889	-530.69863	999.71308	947.12819	-554.56361	1040.70643	823.82700	-547.37697	1012.68725	815.06110	-561.18173	904.63984	857.50910	-159.17229	924.07805	864.23918	-347.42896	926.47706	856.10846	-169.75538	935.32436	869.42972	-328.48727	
103	1.02000000	1069.40211	478.40009	-115.79817	1059.26606	359.78998	-135.90502	854.08329	176.51203	-154.43828	793.18198	160.56938	-207.85510	928.02599	75.05386	-121.47076	972.14251	76.57788	-162.07230	904.42407	475.44681	-415.50972	930.08792	378.32371	-362.21687	844.67865	88.42059	-377.05103	791.86633	52.64215	-333.85914	963.72554	36.97601	-380.21668	995.04922	53.96782	-323.20921	990.43069	270.46278	-151.73150	1009.69871	386.15651	-83.73989	930.07100	309.96939	-105.74619	891.52159	392.56232	-440.67008	883.45418	272.68182	-444.19675	1018.98338	785.89536	-99.05151	1074.92181	690.47474	-101.48836	1040.66802	642.46598	-65.42889	926.12432	731.41442	-65.55071	984.95783	631.13855	-66.39668	1002.03094	761.25616	-410.56676	997.70391	624.83023	-406.52219	904.10438	769.32715	-462.69279	895.33412	627.60702	-448.30405	1001.97118	924.09461	-126.90789	829.52944	978.06876	-198.47956	1029.04125	933.04670	-366.60570	836.09538	987.91927	-315.00622	931.44717	1423.44140	-325.76364	976.24958	1401.13135	-168.13715	990.37706	1365.73947	-473.89930	1044.45251	1352.42243	-292.66674	1047.76088	1342.55576	-336.83074	957.06693	1287.97740	-82.94449	817.96202	1125.25383	-106.93631	850.06870	1128.23369	-38.50441	863.49968	1002.53550	-9.41682	867.13125	897.62342	-1.49974	834.45530	901.59458	13.95340	1005.11208	1214.40867	-522.08199	950.14951	1023.84207	-458.21089	963.50288	1031.51545	-530.57521	1015.92426	948.78883	-553.28298	1058.85591	826.08624	-544.76377	1031.55895	816.96735	-559.61206	913.12843	857.81095	-159.11293	932.68368	863.97923	-347.37703	935.20419	855.98237	-170.01442	944.13635	869.37967	-328.51401	
104	1.03000000	1084.27245	481.25618	-115.81012	1079.44926	362.19636	-134.94689	885.20668	166.81948	-153.38215	825.04244	147.51201	-206.56212	964.75049	70.34810	-119.85969	1008.79014	74.50152	-160.42473	908.89405	475.31616	-415.27717	933.46271	377.77560	-361.94503	844.99805	88.68436	-376.54206	792.12761	52.87192	-333.55104	963.71980	37.01900	-380.05675	995.12292	53.83465	-323.09152	1015.98202	269.30160	-150.34484	1027.99020	386.03198	-83.27551	952.80936	305.48018	-105.33092	894.98681	392.33614	-440.39628	885.75387	272.65499	-443.81937	1029.14944	788.09080	-99.62057	1086.47600	693.58410	-102.64780	1053.53824	645.31502	-65.64186	937.53869	732.64240	-64.74157	997.98467	633.15203	-65.57605	1009.18941	760.35729	-410.61689	1003.65086	623.94905	-406.43160	911.20923	769.24371	-462.90867	900.91724	627.86991	-448.16766	1010.46000	924.41616	-127.17222	838.03010	977.87608	-198.89831	1037.43003	932.52200	-366.63455	844.58124	987.83966	-315.43551	939.70993	1423.65356	-324.49238	983.01337	1400.52633	-166.62084	999.96976	1366.83047	-472.33238	1052.50875	1352.59337	-290.75138	1056.19133	1342.93982	-334.94193	962.76458	1287.27717	-81.85111	824.61563	1124.40359	-107.89139	855.12164	1127.75906	-38.82249	867.81375	1002.21287	-8.78690	870.27825	896.93061	-0.47721	837.91216	901.70005	15.06912	1016.67179	1215.89678	-520.70388	962.67668	1024.58465	-458.37252	977.65375	1032.40577	-530.41167	1031.97470	950.56669	-551.94615	1076.91598	828.53276	-542.08093	1050.31245	819.03641	-557.90173	921.57388	857.95066	-159.12792	941.16491	863.59428	-347.40500	943.89860	855.65238	-170.31114	952.79973	869.18585	-328.61824	
